<?xml version="1.0" encoding="UTF-8"?>
<svg width="512px" height="512px" viewBox="0 0 512 512" version="1.1" xmlns="http://www.w3.org/2000/svg" xmlns:xlink="http://www.w3.org/1999/xlink">
    <!-- Generator: Sketch 49.2 (51160) - http://www.bohemiancoding.com/sketch -->
    <title>icon</title>
    <desc>Created with Sketch.</desc>
    <defs></defs>
    <g id="icon" stroke="none" stroke-width="1" fill="none" fill-rule="evenodd">
        <g>
            <circle id="Oval-Copy" fill="#20BA82" cx="256" cy="256" r="256"></circle>
            <path d="M398.671762,128.156271 C349.859166,109.216932 294.470583,120.818259 257.361263,157.754236 C219.617192,119.126462 161.698702,108.325309 112.568649,130.752029 C107.411237,133.062093 104.081222,138.174719 104.053299,143.825782 L104.053299,360.60318 C104.03406,364.903677 106.125953,368.939948 109.650872,371.403601 C113.175792,373.867255 117.685117,374.444738 121.717111,372.948855 C160.51997,358.754224 203.786448,364.140435 237.924738,387.415454 C243.751123,391.371697 250.63521,393.478845 257.677818,393.461669 C264.558895,393.473841 271.289318,391.447003 277.019376,387.637043 C310.53993,365.123244 352.50443,359.143303 390.979457,371.397732 C392.248708,371.800871 393.573021,372.00379 394.904749,371.999188 C402.14049,371.929632 407.964575,366.034866 407.946847,358.798812 L407.946847,141.514925 C407.914172,135.572758 404.227857,130.263457 398.671762,128.156271 Z M237.006726,195.74093 L237.006726,343.224267 C207.451694,329.20404 174.420056,324.205253 142.039992,328.852635 L142.039992,160.349994 C173.61361,151.763764 207.361261,160.945644 230.232432,184.344922 C232.832628,187.468417 235.102803,190.852463 237.006726,194.443051 C237.006726,194.886229 237.006726,195.297752 237.006726,195.74093 Z" id="Shape" fill="#FFFFFF" fill-rule="nonzero"></path>
        </g>
    </g>
</svg>